# xmcd
#
# Track frame offsets:
#	150
#	12307
#	21887
#	32662
#	44540
#	54970
#	71310
#	82132
#	96350
#	111492
#	126077
#	137057
#	151237
#
# Disc length: 2161 seconds
#
# Revision: 0
# Processed by: cddbd v1.4PL0 Copyright (c) Steve Scherf et al.
# Submitted via: EasyCDDAExtractor 5.0.4.1
#
DISCID=ac086f0d
DTITLE=Emerson, Bill - Banjo Man
DYEAR=1900
DGENRE=Bluegrass
TTITLE0=My Little Home In West Virgina
TTITLE1=Rawhide
TTITLE2=The Grey Ghost
TTITLE3=Nellie Grey
TTITLE4=Randy Lynn Rag
TTITLE5=Good To Go
TTITLE6=Curly Maple
TTITLE7=Soft Winds Of Oklahoma
TTITLE8=Pick Your Own
TTITLE9=You Can Run But You Can't Hide
TTITLE10=Little France
TTITLE11=Bill Cheatham
TTITLE12=Flint Hill Special
EXTD=
EXTT0=
EXTT1=
EXTT2=
EXTT3=
EXTT4=
EXTT5=
EXTT6=
EXTT7=
EXTT8=
EXTT9=
EXTT10=
EXTT11=
EXTT12=
PLAYORDER=
